# Blender v3.5.0 OBJ File: 'virPlayerWhite.blend'
# www.blender.org
mtllib Player.mtl
o Body_Cube
v -1.000000 0.900664 1.000000
v -0.494229 -2.388847 0.524952
v -1.000000 0.900664 -1.000000
v -0.494229 -2.388847 -0.524952
v 1.000000 0.900664 1.000000
v 0.494229 -2.388847 0.524952
v 1.000000 0.900664 -1.000000
v 0.494229 -2.388847 -0.524952
vt 0.458442 0.674282
vt 0.611317 0.674282
vt 0.611317 0.827157
vt 0.458442 0.827157
vt 0.725532 0.593075
vt 0.764192 0.847125
vt 0.611317 0.847125
vt 0.649977 0.593075
vt 0.728063 0.000000
vt 0.764375 0.254397
vt 0.611500 0.254397
vt 0.647811 0.000000
vt 0.611500 0.254397
vt 0.687055 0.254397
vt 0.687055 0.334649
vt 0.611500 0.334649
vt 0.727881 0.338678
vt 0.764192 0.593075
vt 0.611317 0.593075
vt 0.647629 0.338678
vt 0.878407 0.338678
vt 0.917067 0.592728
vt 0.764192 0.592728
vt 0.802852 0.338678
vn 0.0000 1.0000 0.0000
vn 0.0000 -0.1429 -0.9897
vn 0.9884 -0.1520 0.0000
vn 0.0000 -1.0000 0.0000
vn -0.9884 -0.1520 0.0000
vn 0.0000 -0.1429 0.9897
usemtl Material
s off
f 1/1/1 5/2/1 7/3/1 3/4/1
f 4/5/2 3/6/2 7/7/2 8/8/2
f 8/9/3 7/10/3 5/11/3 6/12/3
f 6/13/4 2/14/4 4/15/4 8/16/4
f 2/17/5 1/18/5 3/19/5 4/20/5
f 6/21/6 5/22/6 1/23/6 2/24/6
o LeftArm_Cube.001
v -2.061165 -2.118098 0.700000
v -1.134359 0.019333 0.367466
v -2.061165 -2.118098 -0.700000
v -1.134359 0.019333 -0.367466
v -3.246059 -1.372426 0.700000
v -1.132420 0.897404 0.367466
v -3.246059 -1.372426 -0.700000
v -1.132420 0.897404 -0.367466
vt 0.152875 0.677706
vt 0.305750 0.677706
vt 0.305750 0.830581
vt 0.152875 0.830581
vt 0.267224 0.423716
vt 0.305571 0.677706
vt 0.152875 0.677706
vt 0.215917 0.343054
vt 0.575188 0.000000
vt 0.611500 0.338678
vt 0.458625 0.338678
vt 0.494936 0.000000
vt 0.269439 0.000000
vt 0.269439 0.093905
vt 0.189187 0.093905
vt 0.189187 0.000000
vt 0.305750 0.343054
vt 0.152875 0.343054
vt 0.089655 0.343967
vt 0.152696 0.678619
vt 0.000000 0.678619
vt 0.038347 0.424629
vn -0.5326 -0.8464 0.0000
vn 0.1055 0.0768 -0.9914
vn -0.7318 0.6815 0.0000
vn 1.0000 -0.0022 0.0000
vn 0.9175 -0.3978 0.0000
vn 0.1055 0.0768 0.9914
usemtl Material.001
s off
f 9/25/7 13/26/7 15/27/7 11/28/7
f 12/29/8 11/30/8 15/31/8 16/32/8
f 16/33/9 15/34/9 13/35/9 14/36/9
f 14/37/10 10/38/10 12/39/10 16/40/10
f 10/38/11 9/41/11 11/42/11 12/39/11
f 14/43/12 13/44/12 9/45/12 10/46/12
o RightArm_Cube.002
v 3.242913 -1.377035 0.700000
v 1.129308 0.905359 0.367466
v 3.242913 -1.377035 -0.700000
v 1.129308 0.905359 -0.367466
v 2.055646 -2.118922 0.700000
v 1.135665 0.021455 0.367466
v 2.055646 -2.118922 -0.700000
v 1.135665 0.021455 -0.367466
vt 0.764192 0.745603
vt 0.917067 0.745603
vt 0.917067 0.898478
vt 0.764192 0.898478
vt 0.547950 0.338678
vt 0.611317 0.674282
vt 0.458625 0.674282
vt 0.496965 0.420293
vt 0.116564 0.094610
vt 0.152875 0.343967
vt 0.000000 0.343967
vt 0.036312 0.094610
vt 0.036312 0.000000
vt 0.116564 0.000000
vt 0.422313 0.000000
vt 0.458625 0.339681
vt 0.305750 0.339681
vt 0.342061 0.000000
vt 0.420102 0.421296
vt 0.458442 0.675285
vt 0.305750 0.675285
vt 0.369117 0.339681
vn 0.5299 -0.8480 0.0000
vn -0.1056 0.0767 -0.9915
vn -0.9187 -0.3949 0.0000
vn -1.0000 -0.0072 0.0000
vn 0.7337 0.6795 0.0000
vn -0.1056 0.0767 0.9915
usemtl Material.002
s off
f 17/47/13 21/48/13 23/49/13 19/50/13
f 20/51/14 19/52/14 23/53/14 24/54/14
f 24/55/15 23/56/15 21/57/15 22/58/15
f 22/58/16 18/59/16 20/60/16 24/55/16
f 18/61/17 17/62/17 19/63/17 20/64/17
f 22/65/18 21/66/18 17/67/18 18/68/18
o Head_立方体
v 1.000000 1.192336 -1.000000
v 1.000000 3.192336 -1.000000
v 1.000000 1.192336 1.000000
v 1.000000 3.192336 1.000000
v -1.000000 1.192336 -1.000000
v -1.000000 3.192336 -1.000000
v -1.000000 1.192336 1.000000
v -1.000000 3.192336 1.000000
vt 0.917250 0.000000
vt 0.917250 0.152875
vt 0.764375 0.152875
vt 0.764375 0.000000
vt 0.917250 0.152875
vt 0.917250 0.305750
vt 0.764375 0.305750
vt 0.764375 0.152875
vt 0.611317 0.827157
vt 0.611317 0.980032
vt 0.458442 0.980032
vt 0.458442 0.827157
vt 0.305750 0.830581
vt 0.305750 0.983456
vt 0.152875 0.983456
vt 0.152875 0.830581
vt 0.764192 0.592728
vt 0.917067 0.592728
vt 0.917067 0.745603
vt 0.764192 0.745603
vt 0.611317 0.847125
vt 0.764192 0.847125
vt 0.764192 1.000000
vt 0.611317 1.000000
vn 1.0000 0.0000 0.0000
vn 0.0000 0.0000 1.0000
vn -1.0000 0.0000 0.0000
vn 0.0000 0.0000 -1.0000
vn 0.0000 -1.0000 0.0000
vn 0.0000 1.0000 0.0000
usemtl マテリアル
s off
f 25/69/19 26/70/19 28/71/19 27/72/19
f 27/73/20 28/74/20 32/75/20 31/76/20
f 31/77/21 32/78/21 30/79/21 29/80/21
f 29/81/22 30/82/22 26/83/22 25/84/22
f 27/85/23 31/86/23 29/87/23 25/88/23
f 32/89/24 28/90/24 26/91/24 30/92/24
