{
	"asset":{
		"generator":"Khronos glTF Blender I/O v3.5.30",
		"version":"2.0"
	},
	"scene":0,
	"scenes":[
		{
			"name":"Scene",
			"nodes":[
				0
			]
		}
	],
	"nodes":[
		{
			"mesh":0,
			"name":"LargeSimpleTower_Cube.034"
		}
	],
	"materials":[
		{
			"doubleSided":true,
			"name":"LightRock",
			"pbrMetallicRoughness":{
				"baseColorTexture":{
					"index":0
				},
				"metallicFactor":0,
				"roughnessFactor":0.690034806728363
			}
		},
		{
			"doubleSided":true,
			"name":"Black",
			"pbrMetallicRoughness":{
				"baseColorTexture":{
					"index":1
				},
				"metallicFactor":0,
				"roughnessFactor":0.690034806728363
			}
		},
		{
			"doubleSided":true,
			"name":"Celing",
			"pbrMetallicRoughness":{
				"baseColorTexture":{
					"index":2
				},
				"metallicFactor":0,
				"roughnessFactor":0.690034806728363
			}
		},
		{
			"doubleSided":true,
			"name":"DarkRock",
			"pbrMetallicRoughness":{
				"baseColorTexture":{
					"index":3
				},
				"metallicFactor":0,
				"roughnessFactor":0.690034806728363
			}
		}
	],
	"meshes":[
		{
			"name":"LargeSimpleTower_Cube.034",
			"primitives":[
				{
					"attributes":{
						"POSITION":0,
						"TEXCOORD_0":1,
						"NORMAL":2
					},
					"indices":3,
					"material":0
				},
				{
					"attributes":{
						"POSITION":4,
						"TEXCOORD_0":5,
						"NORMAL":6
					},
					"indices":7,
					"material":1
				},
				{
					"attributes":{
						"POSITION":8,
						"TEXCOORD_0":9,
						"NORMAL":10
					},
					"indices":11,
					"material":2
				},
				{
					"attributes":{
						"POSITION":12,
						"TEXCOORD_0":13,
						"NORMAL":14
					},
					"indices":15,
					"material":3
				}
			]
		}
	],
	"textures":[
		{
			"sampler":0,
			"source":0
		},
		{
			"sampler":0,
			"source":0
		},
		{
			"sampler":0,
			"source":0
		},
		{
			"sampler":0,
			"source":0
		}
	],
	"images":[
		{
			"mimeType":"image/png",
			"name":"tower",
			"uri":"tower.png"
		}
	],
	"accessors":[
		{
			"bufferView":0,
			"componentType":5126,
			"count":356,
			"max":[
				0.2981550097465515,
				2.7994911670684814,
				0.32054808735847473
			],
			"min":[
				-0.2940399944782257,
				0.009503957815468311,
				-0.32221102714538574
			],
			"type":"VEC3"
		},
		{
			"bufferView":1,
			"componentType":5126,
			"count":356,
			"type":"VEC2"
		},
		{
			"bufferView":2,
			"componentType":5126,
			"count":356,
			"type":"VEC3"
		},
		{
			"bufferView":3,
			"componentType":5123,
			"count":846,
			"type":"SCALAR"
		},
		{
			"bufferView":4,
			"componentType":5126,
			"count":48,
			"max":[
				0.22292600572109222,
				2.4930131435394287,
				0.2389773577451706
			],
			"min":[
				-0.2189200073480606,
				0.8609000444412231,
				-0.24059590697288513
			],
			"type":"VEC3"
		},
		{
			"bufferView":5,
			"componentType":5126,
			"count":48,
			"type":"VEC2"
		},
		{
			"bufferView":6,
			"componentType":5126,
			"count":48,
			"type":"VEC3"
		},
		{
			"bufferView":7,
			"componentType":5123,
			"count":72,
			"type":"SCALAR"
		},
		{
			"bufferView":8,
			"componentType":5126,
			"count":68,
			"max":[
				0.3848559856414795,
				3.7002475261688232,
				0.4147334694862366
			],
			"min":[
				-0.3808490037918091,
				2.7994911670684814,
				-0.41635167598724365
			],
			"type":"VEC3"
		},
		{
			"bufferView":9,
			"componentType":5126,
			"count":68,
			"type":"VEC2"
		},
		{
			"bufferView":10,
			"componentType":5126,
			"count":68,
			"type":"VEC3"
		},
		{
			"bufferView":11,
			"componentType":5123,
			"count":108,
			"type":"SCALAR"
		},
		{
			"bufferView":12,
			"componentType":5126,
			"count":240,
			"max":[
				0.3092989921569824,
				0.31793299317359924,
				0.331277072429657
			],
			"min":[
				-0.3040910065174103,
				0.10000603646039963,
				-0.3378570079803467
			],
			"type":"VEC3"
		},
		{
			"bufferView":13,
			"componentType":5126,
			"count":240,
			"type":"VEC2"
		},
		{
			"bufferView":14,
			"componentType":5126,
			"count":240,
			"type":"VEC3"
		},
		{
			"bufferView":15,
			"componentType":5123,
			"count":360,
			"type":"SCALAR"
		}
	],
	"bufferViews":[
		{
			"buffer":0,
			"byteLength":4272,
			"byteOffset":0,
			"target":34962
		},
		{
			"buffer":0,
			"byteLength":2848,
			"byteOffset":4272,
			"target":34962
		},
		{
			"buffer":0,
			"byteLength":4272,
			"byteOffset":7120,
			"target":34962
		},
		{
			"buffer":0,
			"byteLength":1692,
			"byteOffset":11392,
			"target":34963
		},
		{
			"buffer":0,
			"byteLength":576,
			"byteOffset":13084,
			"target":34962
		},
		{
			"buffer":0,
			"byteLength":384,
			"byteOffset":13660,
			"target":34962
		},
		{
			"buffer":0,
			"byteLength":576,
			"byteOffset":14044,
			"target":34962
		},
		{
			"buffer":0,
			"byteLength":144,
			"byteOffset":14620,
			"target":34963
		},
		{
			"buffer":0,
			"byteLength":816,
			"byteOffset":14764,
			"target":34962
		},
		{
			"buffer":0,
			"byteLength":544,
			"byteOffset":15580,
			"target":34962
		},
		{
			"buffer":0,
			"byteLength":816,
			"byteOffset":16124,
			"target":34962
		},
		{
			"buffer":0,
			"byteLength":216,
			"byteOffset":16940,
			"target":34963
		},
		{
			"buffer":0,
			"byteLength":2880,
			"byteOffset":17156,
			"target":34962
		},
		{
			"buffer":0,
			"byteLength":1920,
			"byteOffset":20036,
			"target":34962
		},
		{
			"buffer":0,
			"byteLength":2880,
			"byteOffset":21956,
			"target":34962
		},
		{
			"buffer":0,
			"byteLength":720,
			"byteOffset":24836,
			"target":34963
		}
	],
	"samplers":[
		{
			"magFilter":9729,
			"minFilter":9987
		}
	],
	"buffers":[
		{
			"byteLength":25556,
			"uri":"LargeSimpleTower.bin"
		}
	]
}
