{
	"asset":{
		"generator":"Khronos glTF Blender I/O v3.5.30",
		"version":"2.0"
	},
	"scene":0,
	"scenes":[
		{
			"name":"Scene",
			"nodes":[
				0
			]
		}
	],
	"nodes":[
		{
			"mesh":0,
			"name":"Wall_Cube.039"
		}
	],
	"materials":[
		{
			"doubleSided":true,
			"name":"LightRock",
			"pbrMetallicRoughness":{
				"baseColorTexture":{
					"index":0
				},
				"metallicFactor":0,
				"roughnessFactor":0.690034806728363
			}
		}
	],
	"meshes":[
		{
			"name":"Wall_Cube.039",
			"primitives":[
				{
					"attributes":{
						"POSITION":0,
						"TEXCOORD_0":1,
						"NORMAL":2
					},
					"indices":3,
					"material":0
				}
			]
		}
	],
	"textures":[
		{
			"sampler":0,
			"source":0
		}
	],
	"images":[
		{
			"mimeType":"image/png",
			"name":"wallTex",
			"uri":"wallTex.png"
		}
	],
	"accessors":[
		{
			"bufferView":0,
			"componentType":5126,
			"count":169,
			"max":[
				0.7697950005531311,
				1.5645829439163208,
				0.3164709210395813
			],
			"min":[
				-0.7662760019302368,
				0.015132981352508068,
				-0.24274210631847382
			],
			"type":"VEC3"
		},
		{
			"bufferView":1,
			"componentType":5126,
			"count":169,
			"type":"VEC2"
		},
		{
			"bufferView":2,
			"componentType":5126,
			"count":169,
			"type":"VEC3"
		},
		{
			"bufferView":3,
			"componentType":5123,
			"count":324,
			"type":"SCALAR"
		}
	],
	"bufferViews":[
		{
			"buffer":0,
			"byteLength":2028,
			"byteOffset":0,
			"target":34962
		},
		{
			"buffer":0,
			"byteLength":1352,
			"byteOffset":2028,
			"target":34962
		},
		{
			"buffer":0,
			"byteLength":2028,
			"byteOffset":3380,
			"target":34962
		},
		{
			"buffer":0,
			"byteLength":648,
			"byteOffset":5408,
			"target":34963
		}
	],
	"samplers":[
		{
			"magFilter":9729,
			"minFilter":9987
		}
	],
	"buffers":[
		{
			"byteLength":6056,
			"uri":"wall.bin"
		}
	]
}
