{
	"asset":{
		"generator":"Khronos glTF Blender I/O v3.5.30",
		"version":"2.0"
	},
	"extensionsUsed":[
		"KHR_materials_specular",
		"KHR_materials_ior"
	],
	"scene":0,
	"scenes":[
		{
			"name":"Scene",
			"nodes":[
				0
			]
		}
	],
	"nodes":[
		{
			"mesh":0,
			"name":"Retopology_hp_Plane.002",
			"rotation":[
				0.70710688829422,
				0,
				0,
				0.7071066498756409
			],
			"scale":[
				0.009999999776482582,
				0.009999999776482582,
				0.009999999776482582
			]
		}
	],
	"animations":[
		{
			"channels":[
				{
					"sampler":0,
					"target":{
						"node":0,
						"path":"translation"
					}
				},
				{
					"sampler":1,
					"target":{
						"node":0,
						"path":"rotation"
					}
				},
				{
					"sampler":2,
					"target":{
						"node":0,
						"path":"scale"
					}
				}
			],
			"name":"Retopology_hp_Plane.002",
			"samplers":[
				{
					"input":4,
					"interpolation":"LINEAR",
					"output":5
				},
				{
					"input":4,
					"interpolation":"LINEAR",
					"output":6
				},
				{
					"input":4,
					"interpolation":"LINEAR",
					"output":7
				}
			]
		}
	],
	"materials":[
		{
			"doubleSided":true,
			"extensions":{
				"KHR_materials_specular":{
					"specularColorTexture":{
						"index":0
					},
					"specularColorFactor":[
						1.5999999813950578,
						1.5999999813950578,
						1.5999999813950578
					]
				},
				"KHR_materials_ior":{
					"ior":1.4500000476837158
				}
			},
			"name":"None",
			"pbrMetallicRoughness":{
				"baseColorTexture":{
					"index":1
				},
				"metallicFactor":0,
				"roughnessFactor":0.2928932309150696
			}
		}
	],
	"meshes":[
		{
			"name":"Retopology_hp_Plane.002",
			"primitives":[
				{
					"attributes":{
						"POSITION":0,
						"TEXCOORD_0":1,
						"NORMAL":2
					},
					"indices":3,
					"material":0
				}
			]
		}
	],
	"textures":[
		{
			"sampler":0,
			"source":0
		},
		{
			"sampler":0,
			"source":1
		}
	],
	"images":[
		{
			"mimeType":"image/png",
			"name":"Image",
			"uri":"Image.png"
		},
		{
			"mimeType":"image/png",
			"name":"white",
			"uri":"white.png"
		}
	],
	"accessors":[
		{
			"bufferView":0,
			"componentType":5126,
			"count":13538,
			"max":[
				58.89707565307617,
				33.936580657958984,
				-0.8110671639442444
			],
			"min":[
				-58.897117614746094,
				-38.72951889038086,
				-165.65660095214844
			],
			"type":"VEC3"
		},
		{
			"bufferView":1,
			"componentType":5126,
			"count":13538,
			"type":"VEC2"
		},
		{
			"bufferView":2,
			"componentType":5126,
			"count":13538,
			"type":"VEC3"
		},
		{
			"bufferView":3,
			"componentType":5123,
			"count":80880,
			"type":"SCALAR"
		},
		{
			"bufferView":4,
			"componentType":5126,
			"count":24,
			"max":[
				0.9750000014901161
			],
			"min":[
				0.016666668156782787
			],
			"type":"SCALAR"
		},
		{
			"bufferView":5,
			"componentType":5126,
			"count":24,
			"type":"VEC3"
		},
		{
			"bufferView":6,
			"componentType":5126,
			"count":24,
			"type":"VEC4"
		},
		{
			"bufferView":7,
			"componentType":5126,
			"count":24,
			"type":"VEC3"
		}
	],
	"bufferViews":[
		{
			"buffer":0,
			"byteLength":162456,
			"byteOffset":0,
			"target":34962
		},
		{
			"buffer":0,
			"byteLength":108304,
			"byteOffset":162456,
			"target":34962
		},
		{
			"buffer":0,
			"byteLength":162456,
			"byteOffset":270760,
			"target":34962
		},
		{
			"buffer":0,
			"byteLength":161760,
			"byteOffset":433216,
			"target":34963
		},
		{
			"buffer":0,
			"byteLength":96,
			"byteOffset":594976
		},
		{
			"buffer":0,
			"byteLength":288,
			"byteOffset":595072
		},
		{
			"buffer":0,
			"byteLength":384,
			"byteOffset":595360
		},
		{
			"buffer":0,
			"byteLength":288,
			"byteOffset":595744
		}
	],
	"samplers":[
		{
			"magFilter":9729,
			"minFilter":9987
		}
	],
	"buffers":[
		{
			"byteLength":596032,
			"uri":"walk.bin"
		}
	]
}
