# Blender v3.5.0 OBJ File: 'EnemyParts.blend'
# www.blender.org
mtllib EnemyParts.mtl
o Cube
v -0.496326 0.918939 0.508851
v -0.496326 0.918939 -0.508851
v 0.496326 0.918939 0.508851
v 0.496326 0.918939 -0.508851
v -0.235844 -0.014866 0.257107
v 0.235913 -0.014885 -0.257107
v -0.235844 -0.014866 -0.257107
v 0.235913 -0.014885 0.257107
v -0.251145 1.150601 0.294983
v -0.245208 1.138541 -0.257573
v 0.238598 1.138093 0.272530
v 0.245208 1.138541 -0.257573
v 0.000000 2.496128 0.000000
v 0.247765 0.696529 -0.256352
v -0.247765 0.696529 0.256352
v -0.247765 0.696529 -0.256352
v 0.247765 0.696529 0.256352
v 0.496326 -0.911241 0.508851
v 0.496326 -0.911241 -0.508851
v -0.496358 -0.911181 0.508851
v -0.496358 -0.911181 -0.508851
v 0.245281 -1.130813 0.257573
v 0.245208 -1.130842 -0.257573
v -0.245281 -1.130813 0.257573
v -0.245281 -1.130813 -0.257573
v 0.000000 -2.488429 0.000000
v -0.247756 -0.688800 -0.256352
v 0.247765 -0.688830 0.256352
v 0.247756 -0.688800 -0.256352
v -0.247756 -0.688800 0.256352
vt 0.204170 0.316380
vt 0.050567 0.272341
vt 0.156920 0.272432
vt 0.742504 0.660163
vt 0.810010 0.809442
vt 0.742504 0.759576
vt 0.000000 0.316380
vt 0.153668 0.361017
vt 0.050810 0.361017
vt 0.204170 0.316503
vt 0.357866 0.361079
vt 0.255008 0.361079
vt 0.674999 0.660163
vt 0.742504 0.809442
vt 0.674999 0.759576
vt 0.677112 0.420225
vt 0.770008 0.387818
vt 0.795523 0.610297
vt 0.358113 0.272402
vt 0.408340 0.316503
vt 0.596487 0.000000
vt 0.475447 0.108751
vt 0.408340 0.065244
vt 0.795523 0.308010
vt 0.607492 0.373606
vt 0.568824 0.078028
vt 0.596487 0.308010
vt 0.247256 0.269983
vt 0.306619 0.000000
vt 0.102393 0.000000
vt 0.459892 0.593435
vt 0.556036 0.691242
vt 0.461396 0.691240
vt 0.358026 0.503797
vt 0.254866 0.503796
vt 0.153827 0.503742
vt 0.050666 0.503742
vt 0.857146 0.310403
vt 0.951387 0.407423
vt 0.857144 0.405047
vt 0.408340 0.683661
vt 0.254765 0.727679
vt 0.204170 0.683661
vt 0.674999 0.610297
vt 0.607495 0.759577
vt 0.607492 0.660168
vt 0.255008 0.639003
vt 0.357866 0.639003
vt 0.153668 0.638948
vt 0.000000 0.683550
vt 0.050810 0.638942
vt 0.557597 0.783679
vt 0.408340 0.851149
vt 0.458189 0.783679
vt 0.557118 0.526483
vt 0.458716 0.526483
vt 0.507897 0.308010
vt 0.153915 0.727618
vt 0.050567 0.727624
vt 0.959701 0.285422
vt 0.810923 0.218470
vt 0.909339 0.218474
vt 0.607492 0.593435
vt 0.860142 0.000000
vt 0.102393 1.000000
vt 0.358113 0.727679
vt 0.306619 1.000000
vt 0.946429 0.407423
vt 0.857144 0.504445
vt 0.857146 0.409801
vt 0.810010 0.610297
vt 0.742504 0.610297
vt 0.559301 0.593439
vt 0.951387 0.308010
vt 0.674999 0.809449
vt 0.204170 0.683550
vt 0.607485 0.851149
vt 0.760549 0.285422
vt 0.408340 0.593435
vt 0.946429 0.506832
vn 0.6431 0.7657 0.0087
vn 0.0000 -0.7504 -0.6610
vn 0.6668 -0.7452 0.0000
vn -0.6668 -0.7452 0.0000
vn 0.0000 -0.7504 0.6610
vn 0.0000 0.1864 -0.9825
vn -0.6583 0.7528 0.0000
vn 0.0000 0.6783 0.7348
vn 0.0000 0.7530 -0.6581
vn 0.0500 0.2050 0.9775
vn -0.9835 0.1804 -0.0145
vn 0.9844 0.1754 0.0124
vn 0.0000 0.0011 1.0000
vn -0.9999 -0.0168 0.0000
vn 0.9999 -0.0167 0.0000
vn 0.0000 0.0011 -1.0000
vn -0.6584 -0.7527 0.0000
vn 0.0000 0.7504 -0.6610
vn -0.6667 0.7453 0.0000
vn 0.6669 0.7452 0.0000
vn 0.0000 0.7504 0.6610
vn -0.0000 -0.1864 -0.9825
vn 0.6583 -0.7528 -0.0000
vn 0.0000 -0.7530 0.6580
vn -0.0000 -0.7529 -0.6581
vn 0.0000 -0.1864 0.9825
vn 0.9841 -0.1778 -0.0001
vn -0.9841 -0.1778 0.0000
vn -0.0000 -0.0011 1.0000
vn 0.9998 0.0176 0.0000
vn -0.9998 0.0177 0.0000
vn -0.0000 -0.0011 -1.0000
vn 0.6583 0.7528 0.0000
vn -0.6972 0.7165 -0.0231
vn 0.0492 0.7585 0.6498
vn 0.6668 0.7452 0.0000
vn 0.6583 -0.7527 0.0000
vn -0.0000 -0.7530 0.6581
vn -0.0000 -0.7530 -0.6581
usemtl Material
s off
f 3/1/1 12/2/1 11/3/1
f 16/4/2 4/5/2 14/6/2
f 4/7/3 17/8/3 14/9/3
f 1/10/4 16/11/4 15/12/4
f 17/13/5 1/14/5 15/15/5
f 12/16/6 10/17/6 13/18/6
f 1/10/7 10/19/7 2/20/7
f 3/21/8 9/22/8 1/23/8
f 2/24/9 12/16/9 4/25/9
f 9/22/10 11/26/10 13/27/10
f 10/19/11 9/28/11 13/29/11
f 11/3/12 12/2/12 13/30/12
f 17/31/13 5/32/13 8/33/13
f 15/12/14 7/34/14 5/35/14
f 14/9/15 8/36/15 6/37/15
f 7/38/16 14/39/16 6/40/16
f 21/41/17 24/42/17 20/43/17
f 19/44/18 27/45/18 29/46/18
f 21/41/19 30/47/19 27/48/19
f 28/49/20 19/50/20 29/51/20
f 30/52/21 18/53/21 28/54/21
f 25/55/22 23/56/22 26/57/22
f 19/50/23 22/58/23 23/59/23
f 18/60/24 24/61/24 22/62/24
f 21/63/25 23/56/25 25/55/25
f 22/62/26 24/61/26 26/64/26
f 23/59/27 22/58/27 26/65/27
f 24/42/28 25/66/28 26/67/28
f 30/52/29 8/33/29 5/32/29
f 8/36/30 29/51/30 6/37/30
f 27/48/31 5/35/31 7/34/31
f 29/68/32 7/69/32 6/70/32
f 3/1/33 4/7/33 12/2/33
f 16/4/2 2/71/2 4/5/2
f 4/7/3 3/1/3 17/8/3
f 1/10/4 2/20/4 16/11/4
f 17/13/5 3/72/5 1/14/5
f 1/10/34 9/28/34 10/19/34
f 3/21/35 11/26/35 9/22/35
f 2/24/9 10/17/9 12/16/9
f 17/31/13 15/73/13 5/32/13
f 15/12/14 16/11/14 7/34/14
f 14/9/15 17/8/15 8/36/15
f 7/38/16 16/74/16 14/39/16
f 21/41/17 25/66/17 24/42/17
f 19/44/18 21/75/18 27/45/18
f 21/41/19 20/43/19 30/47/19
f 28/49/36 18/76/36 19/50/36
f 30/52/21 20/77/21 18/53/21
f 19/50/37 18/76/37 22/58/37
f 18/60/38 20/78/38 24/61/38
f 21/63/39 19/79/39 23/56/39
f 30/52/29 28/54/29 8/33/29
f 8/36/30 28/49/30 29/51/30
f 27/48/31 30/47/31 5/35/31
f 29/68/32 27/80/32 7/69/32
