{
	"asset":{
		"generator":"Khronos glTF Blender I/O v3.5.30",
		"version":"2.0"
	},
	"scene":0,
	"scenes":[
		{
			"name":"Scene",
			"nodes":[
				0
			]
		}
	],
	"nodes":[
		{
			"mesh":0,
			"name":"\u5186\u9310",
			"rotation":[
				0.70710688829422,
				0,
				0,
				0.7071066498756409
			]
		}
	],
	"materials":[
		{
			"doubleSided":true,
			"name":"\u30de\u30c6\u30ea\u30a2\u30eb.003",
			"pbrMetallicRoughness":{
				"baseColorTexture":{
					"index":0
				},
				"metallicFactor":0,
				"roughnessFactor":0.5
			}
		},
		{
			"doubleSided":true,
			"name":"\u30de\u30c6\u30ea\u30a2\u30eb",
			"pbrMetallicRoughness":{
				"baseColorTexture":{
					"index":1
				},
				"metallicFactor":0,
				"roughnessFactor":0.5
			}
		},
		{
			"doubleSided":true,
			"name":"\u30de\u30c6\u30ea\u30a2\u30eb.001",
			"pbrMetallicRoughness":{
				"baseColorTexture":{
					"index":2
				},
				"metallicFactor":0,
				"roughnessFactor":0.5
			}
		},
		{
			"doubleSided":true,
			"name":"\u30de\u30c6\u30ea\u30a2\u30eb.002",
			"pbrMetallicRoughness":{
				"baseColorTexture":{
					"index":3
				},
				"metallicFactor":0,
				"roughnessFactor":0.5
			}
		},
		{
			"doubleSided":true,
			"name":"Material.002",
			"pbrMetallicRoughness":{
				"baseColorTexture":{
					"index":4
				},
				"metallicFactor":0,
				"roughnessFactor":0.5
			}
		}
	],
	"meshes":[
		{
			"name":"\u5186\u9310",
			"primitives":[
				{
					"attributes":{
						"POSITION":0,
						"TEXCOORD_0":1,
						"NORMAL":2
					},
					"indices":3,
					"material":0
				},
				{
					"attributes":{
						"POSITION":4,
						"TEXCOORD_0":5,
						"NORMAL":6
					},
					"indices":7,
					"material":1
				},
				{
					"attributes":{
						"POSITION":8,
						"TEXCOORD_0":9,
						"NORMAL":10
					},
					"indices":11,
					"material":2
				},
				{
					"attributes":{
						"POSITION":12,
						"TEXCOORD_0":13,
						"NORMAL":14
					},
					"indices":15,
					"material":3
				},
				{
					"attributes":{
						"POSITION":16,
						"TEXCOORD_0":17,
						"NORMAL":18
					},
					"indices":19,
					"material":4
				}
			]
		}
	],
	"textures":[
		{
			"sampler":0,
			"source":0
		},
		{
			"sampler":0,
			"source":0
		},
		{
			"sampler":0,
			"source":0
		},
		{
			"sampler":0,
			"source":0
		},
		{
			"sampler":0,
			"source":0
		}
	],
	"images":[
		{
			"mimeType":"image/png",
			"name":"Sword.png",
			"uri":"Sword.png"
		}
	],
	"accessors":[
		{
			"bufferView":0,
			"componentType":5126,
			"count":134,
			"max":[
				0.20344099402427673,
				0.1943189948797226,
				2.7038750648498535
			],
			"min":[
				-0.1905589997768402,
				-0.19968099892139435,
				1.9478529691696167
			],
			"type":"VEC3"
		},
		{
			"bufferView":1,
			"componentType":5126,
			"count":134,
			"type":"VEC2"
		},
		{
			"bufferView":2,
			"componentType":5126,
			"count":134,
			"type":"VEC3"
		},
		{
			"bufferView":3,
			"componentType":5123,
			"count":186,
			"type":"SCALAR"
		},
		{
			"bufferView":4,
			"componentType":5126,
			"count":192,
			"max":[
				0.20730599761009216,
				0.19815799593925476,
				1.9527510404586792
			],
			"min":[
				-0.19169600307941437,
				-0.19646599888801575,
				-0.6075530052185059
			],
			"type":"VEC3"
		},
		{
			"bufferView":5,
			"componentType":5126,
			"count":192,
			"type":"VEC2"
		},
		{
			"bufferView":6,
			"componentType":5126,
			"count":192,
			"type":"VEC3"
		},
		{
			"bufferView":7,
			"componentType":5123,
			"count":372,
			"type":"SCALAR"
		},
		{
			"bufferView":8,
			"componentType":5126,
			"count":240,
			"max":[
				0.4606350064277649,
				0.49080899357795715,
				0.28563401103019714
			],
			"min":[
				-0.4562259912490845,
				-0.49560999870300293,
				-0.7424690127372742
			],
			"type":"VEC3"
		},
		{
			"bufferView":9,
			"componentType":5126,
			"count":240,
			"type":"VEC2"
		},
		{
			"bufferView":10,
			"componentType":5126,
			"count":240,
			"type":"VEC3"
		},
		{
			"bufferView":11,
			"componentType":5123,
			"count":372,
			"type":"SCALAR"
		},
		{
			"bufferView":12,
			"componentType":5126,
			"count":194,
			"max":[
				0.46966099739074707,
				1.2472330331802368,
				0.07013200223445892
			],
			"min":[
				-0.4503389894962311,
				-1.2527669668197632,
				-0.016235999763011932
			],
			"type":"VEC3"
		},
		{
			"bufferView":13,
			"componentType":5126,
			"count":194,
			"type":"VEC2"
		},
		{
			"bufferView":14,
			"componentType":5126,
			"count":194,
			"type":"VEC3"
		},
		{
			"bufferView":15,
			"componentType":5123,
			"count":372,
			"type":"SCALAR"
		},
		{
			"bufferView":16,
			"componentType":5126,
			"count":270,
			"max":[
				0.15201200544834137,
				0.5031790137290955,
				-0.3241960108280182
			],
			"min":[
				-0.18834500014781952,
				-0.4880709946155548,
				-10.089503288269043
			],
			"type":"VEC3"
		},
		{
			"bufferView":17,
			"componentType":5126,
			"count":270,
			"type":"VEC2"
		},
		{
			"bufferView":18,
			"componentType":5126,
			"count":270,
			"type":"VEC3"
		},
		{
			"bufferView":19,
			"componentType":5123,
			"count":312,
			"type":"SCALAR"
		}
	],
	"bufferViews":[
		{
			"buffer":0,
			"byteLength":1608,
			"byteOffset":0,
			"target":34962
		},
		{
			"buffer":0,
			"byteLength":1072,
			"byteOffset":1608,
			"target":34962
		},
		{
			"buffer":0,
			"byteLength":1608,
			"byteOffset":2680,
			"target":34962
		},
		{
			"buffer":0,
			"byteLength":372,
			"byteOffset":4288,
			"target":34963
		},
		{
			"buffer":0,
			"byteLength":2304,
			"byteOffset":4660,
			"target":34962
		},
		{
			"buffer":0,
			"byteLength":1536,
			"byteOffset":6964,
			"target":34962
		},
		{
			"buffer":0,
			"byteLength":2304,
			"byteOffset":8500,
			"target":34962
		},
		{
			"buffer":0,
			"byteLength":744,
			"byteOffset":10804,
			"target":34963
		},
		{
			"buffer":0,
			"byteLength":2880,
			"byteOffset":11548,
			"target":34962
		},
		{
			"buffer":0,
			"byteLength":1920,
			"byteOffset":14428,
			"target":34962
		},
		{
			"buffer":0,
			"byteLength":2880,
			"byteOffset":16348,
			"target":34962
		},
		{
			"buffer":0,
			"byteLength":744,
			"byteOffset":19228,
			"target":34963
		},
		{
			"buffer":0,
			"byteLength":2328,
			"byteOffset":19972,
			"target":34962
		},
		{
			"buffer":0,
			"byteLength":1552,
			"byteOffset":22300,
			"target":34962
		},
		{
			"buffer":0,
			"byteLength":2328,
			"byteOffset":23852,
			"target":34962
		},
		{
			"buffer":0,
			"byteLength":744,
			"byteOffset":26180,
			"target":34963
		},
		{
			"buffer":0,
			"byteLength":3240,
			"byteOffset":26924,
			"target":34962
		},
		{
			"buffer":0,
			"byteLength":2160,
			"byteOffset":30164,
			"target":34962
		},
		{
			"buffer":0,
			"byteLength":3240,
			"byteOffset":32324,
			"target":34962
		},
		{
			"buffer":0,
			"byteLength":624,
			"byteOffset":35564,
			"target":34963
		}
	],
	"samplers":[
		{
			"magFilter":9729,
			"minFilter":9987
		}
	],
	"buffers":[
		{
			"byteLength":36188,
			"uri":"Weapon.bin"
		}
	]
}
